<?xml version="1.0" encoding="UTF-8" standalone="no"?>
<!-- Created with Inkscape (http://www.inkscape.org/) -->

<svg
   width="108mm"
   height="108mm"
   viewBox="0 0 108 108"
   version="1.1"
   id="svg3030"
   xml:space="preserve"
   inkscape:version="1.2.1 (9c6d41e410, 2022-07-14, custom)"
   sodipodi:docname="antygarb_icon_2.svg"
   xmlns:inkscape="http://www.inkscape.org/namespaces/inkscape"
   xmlns:sodipodi="http://sodipodi.sourceforge.net/DTD/sodipodi-0.dtd"
   xmlns:xlink="http://www.w3.org/1999/xlink"
   xmlns="http://www.w3.org/2000/svg"
   xmlns:svg="http://www.w3.org/2000/svg"><sodipodi:namedview
     id="namedview3032"
     pagecolor="#505050"
     bordercolor="#ffffff"
     borderopacity="1"
     inkscape:showpageshadow="0"
     inkscape:pageopacity="0"
     inkscape:pagecheckerboard="1"
     inkscape:deskcolor="#505050"
     inkscape:document-units="mm"
     showgrid="false"
     inkscape:zoom="1.4142136"
     inkscape:cx="143.54267"
     inkscape:cy="211.42492"
     inkscape:window-width="1920"
     inkscape:window-height="1010"
     inkscape:window-x="0"
     inkscape:window-y="0"
     inkscape:window-maximized="1"
     inkscape:current-layer="layer1" /><defs
     id="defs3027"><linearGradient
       inkscape:collect="always"
       id="linearGradient39266"><stop
         style="stop-color:#0cffd0;stop-opacity:1;"
         offset="0"
         id="stop39262" /><stop
         style="stop-color:#0016fd;stop-opacity:1;"
         offset="1"
         id="stop39264" /></linearGradient><linearGradient
       inkscape:collect="always"
       xlink:href="#linearGradient39266"
       id="linearGradient39268"
       x1="0.026838593"
       y1="0.017643413"
       x2="108.01669"
       y2="107.98367"
       gradientUnits="userSpaceOnUse" /><inkscape:path-effect
       effect="bspline"
       id="path-effect18787"
       is_visible="true"
       lpeversion="1"
       weight="33.333333"
       steps="2"
       helper_size="0"
       apply_no_weight="true"
       apply_with_weight="true"
       only_selected="false" /><inkscape:path-effect
       effect="bspline"
       id="path-effect18510"
       is_visible="true"
       lpeversion="1"
       weight="33.333333"
       steps="2"
       helper_size="0"
       apply_no_weight="true"
       apply_with_weight="true"
       only_selected="false" /><inkscape:path-effect
       effect="bspline"
       id="path-effect18452"
       is_visible="true"
       lpeversion="1"
       weight="33.333333"
       steps="2"
       helper_size="0"
       apply_no_weight="true"
       apply_with_weight="true"
       only_selected="false" /><inkscape:path-effect
       effect="bspline"
       id="path-effect18384"
       is_visible="true"
       lpeversion="1"
       weight="33.333333"
       steps="2"
       helper_size="0"
       apply_no_weight="true"
       apply_with_weight="true"
       only_selected="false" /><inkscape:path-effect
       effect="bspline"
       id="path-effect17654"
       is_visible="true"
       lpeversion="1"
       weight="33.333333"
       steps="2"
       helper_size="0"
       apply_no_weight="true"
       apply_with_weight="true"
       only_selected="false" /><inkscape:path-effect
       effect="bspline"
       id="path-effect7999"
       is_visible="true"
       lpeversion="1"
       weight="33.333333"
       steps="2"
       helper_size="0"
       apply_no_weight="true"
       apply_with_weight="true"
       only_selected="false" /><inkscape:path-effect
       effect="spiro"
       id="path-effect7991"
       is_visible="true"
       lpeversion="1" /><inkscape:path-effect
       effect="spiro"
       id="path-effect7987"
       is_visible="true"
       lpeversion="1" /><inkscape:path-effect
       effect="bspline"
       id="path-effect7999-7"
       is_visible="true"
       lpeversion="1"
       weight="33.333333"
       steps="2"
       helper_size="0"
       apply_no_weight="true"
       apply_with_weight="true"
       only_selected="false" /><inkscape:path-effect
       effect="bspline"
       id="path-effect7999-3"
       is_visible="true"
       lpeversion="1"
       weight="33.333333"
       steps="2"
       helper_size="0"
       apply_no_weight="true"
       apply_with_weight="true"
       only_selected="false" /><inkscape:path-effect
       effect="bspline"
       id="path-effect18384-6"
       is_visible="true"
       lpeversion="1"
       weight="33.333333"
       steps="2"
       helper_size="0"
       apply_no_weight="true"
       apply_with_weight="true"
       only_selected="false" /><inkscape:path-effect
       effect="bspline"
       id="path-effect18384-6-9"
       is_visible="true"
       lpeversion="1"
       weight="33.333333"
       steps="2"
       helper_size="0"
       apply_no_weight="true"
       apply_with_weight="true"
       only_selected="false" /><inkscape:path-effect
       effect="bspline"
       id="path-effect18384-2"
       is_visible="true"
       lpeversion="1"
       weight="33.333333"
       steps="2"
       helper_size="0"
       apply_no_weight="true"
       apply_with_weight="true"
       only_selected="false" /><inkscape:path-effect
       effect="bspline"
       id="path-effect18384-6-9-7"
       is_visible="true"
       lpeversion="1"
       weight="33.333333"
       steps="2"
       helper_size="0"
       apply_no_weight="true"
       apply_with_weight="true"
       only_selected="false" /><inkscape:path-effect
       effect="bspline"
       id="path-effect18452-0"
       is_visible="true"
       lpeversion="1"
       weight="33.333333"
       steps="2"
       helper_size="0"
       apply_no_weight="true"
       apply_with_weight="true"
       only_selected="false" /><inkscape:path-effect
       effect="bspline"
       id="path-effect7999-0"
       is_visible="true"
       lpeversion="1"
       weight="33.333333"
       steps="2"
       helper_size="0"
       apply_no_weight="true"
       apply_with_weight="true"
       only_selected="false" /><inkscape:path-effect
       effect="bspline"
       id="path-effect18384-2-2"
       is_visible="true"
       lpeversion="1"
       weight="33.333333"
       steps="2"
       helper_size="0"
       apply_no_weight="true"
       apply_with_weight="true"
       only_selected="false" /><inkscape:path-effect
       effect="bspline"
       id="path-effect18384-6-9-7-6"
       is_visible="true"
       lpeversion="1"
       weight="33.333333"
       steps="2"
       helper_size="0"
       apply_no_weight="true"
       apply_with_weight="true"
       only_selected="false" /><inkscape:path-effect
       effect="bspline"
       id="path-effect18452-0-1"
       is_visible="true"
       lpeversion="1"
       weight="33.333333"
       steps="2"
       helper_size="0"
       apply_no_weight="true"
       apply_with_weight="true"
       only_selected="false" /><inkscape:path-effect
       effect="bspline"
       id="path-effect18384-2-22"
       is_visible="true"
       lpeversion="1"
       weight="33.333333"
       steps="2"
       helper_size="0"
       apply_no_weight="true"
       apply_with_weight="true"
       only_selected="false" /><inkscape:path-effect
       effect="bspline"
       id="path-effect18384-6-9-7-8"
       is_visible="true"
       lpeversion="1"
       weight="33.333333"
       steps="2"
       helper_size="0"
       apply_no_weight="true"
       apply_with_weight="true"
       only_selected="false" /><inkscape:path-effect
       effect="bspline"
       id="path-effect18452-0-9"
       is_visible="true"
       lpeversion="1"
       weight="33.333333"
       steps="2"
       helper_size="0"
       apply_no_weight="true"
       apply_with_weight="true"
       only_selected="false" /><inkscape:path-effect
       effect="bspline"
       id="path-effect18452-0-15"
       is_visible="true"
       lpeversion="1"
       weight="33.333333"
       steps="2"
       helper_size="0"
       apply_no_weight="true"
       apply_with_weight="true"
       only_selected="false" /><inkscape:path-effect
       effect="bspline"
       id="path-effect18384-6-9-7-5"
       is_visible="true"
       lpeversion="1"
       weight="33.333333"
       steps="2"
       helper_size="0"
       apply_no_weight="true"
       apply_with_weight="true"
       only_selected="false" /><inkscape:path-effect
       effect="bspline"
       id="path-effect18384-2-4"
       is_visible="true"
       lpeversion="1"
       weight="33.333333"
       steps="2"
       helper_size="0"
       apply_no_weight="true"
       apply_with_weight="true"
       only_selected="false" /><inkscape:path-effect
       effect="bspline"
       id="path-effect7999-0-6"
       is_visible="true"
       lpeversion="1"
       weight="33.333333"
       steps="2"
       helper_size="0"
       apply_no_weight="true"
       apply_with_weight="true"
       only_selected="false" /><inkscape:path-effect
       effect="bspline"
       id="path-effect18452-0-93"
       is_visible="true"
       lpeversion="1"
       weight="33.333333"
       steps="2"
       helper_size="0"
       apply_no_weight="true"
       apply_with_weight="true"
       only_selected="false" /><inkscape:path-effect
       effect="bspline"
       id="path-effect18452-0-15-7"
       is_visible="true"
       lpeversion="1"
       weight="33.333333"
       steps="2"
       helper_size="0"
       apply_no_weight="true"
       apply_with_weight="true"
       only_selected="false" /><inkscape:path-effect
       effect="bspline"
       id="path-effect18787-4"
       is_visible="true"
       lpeversion="1"
       weight="33.333333"
       steps="2"
       helper_size="0"
       apply_no_weight="true"
       apply_with_weight="true"
       only_selected="false" /><inkscape:path-effect
       effect="bspline"
       id="path-effect7999-0-6-7"
       is_visible="true"
       lpeversion="1"
       weight="33.333333"
       steps="2"
       helper_size="0"
       apply_no_weight="true"
       apply_with_weight="true"
       only_selected="false" /><inkscape:path-effect
       effect="bspline"
       id="path-effect18452-0-93-8"
       is_visible="true"
       lpeversion="1"
       weight="33.333333"
       steps="2"
       helper_size="0"
       apply_no_weight="true"
       apply_with_weight="true"
       only_selected="false" /><inkscape:path-effect
       effect="bspline"
       id="path-effect18452-0-15-7-6"
       is_visible="true"
       lpeversion="1"
       weight="33.333333"
       steps="2"
       helper_size="0"
       apply_no_weight="true"
       apply_with_weight="true"
       only_selected="false" /><inkscape:path-effect
       effect="bspline"
       id="path-effect18787-4-8"
       is_visible="true"
       lpeversion="1"
       weight="33.333333"
       steps="2"
       helper_size="0"
       apply_no_weight="true"
       apply_with_weight="true"
       only_selected="false" /></defs><g
     inkscape:groupmode="layer"
     id="layer2"
     inkscape:label="background"
     style="display:inline"><rect
       style="fill:url(#linearGradient39268);fill-opacity:1;stroke-width:0.266;stroke-dasharray:none"
       id="rect4348"
       width="108"
       height="108"
       x="0"
       y="0"
       rx="6.7805057" /></g><g
     inkscape:label="Warstwa 1"
     inkscape:groupmode="layer"
     id="layer1"><g
       inkscape:label="icon"
       id="layer1-6"
       transform="matrix(1.0020803,0,0,1.0020803,-0.11233495,-0.16107394)"><g
         id="1"
         transform="matrix(1.9271987,0,0,1.9271987,-14.177378,0.59152866)"
         style="opacity:1;fill:none;fill-opacity:1;stroke:#000000;stroke-width:1.00003;stroke-dasharray:none;stroke-opacity:1"><path
           id="path7997-6"
           style="fill:none;fill-opacity:1;stroke:#000000;stroke-width:1.00003;stroke-linecap:round;stroke-linejoin:miter;stroke-dasharray:none;stroke-opacity:1"
           inkscape:path-effect="#path-effect7999-0"
           inkscape:original-d="m 28.173637,49.138663 c 2.373096,0.8982 4.74588,1.796117 7.118494,2.693806 2.373146,-0.877665 4.745931,-1.755559 7.118499,-2.633735 M 28.173635,35.202024 c 2.373096,0.8982 4.745881,1.796117 7.118496,2.693806 2.373145,-0.877665 4.745929,-1.755559 7.118497,-2.633735 m 2e-6,10e-7 V 49.198734 M 28.045833,35.100431 v 13.936638"
           d="m 28.173637,49.138663 c 2.37315,0.898056 4.745934,1.795973 7.118728,1.805898 2.372794,0.0099 4.745579,-0.86797 7.118265,-1.745827 M 28.173635,35.202024 c 2.373151,0.898056 4.745935,1.795973 7.118729,1.805898 2.372794,0.0099 4.745578,-0.86797 7.118264,-1.745827 m 2e-6,10e-7 c 0,0 0,13.936638 0,13.936638 M 28.045833,35.100431 c 0,0 0,13.936638 0,13.936638" /><path
           id="path18450-6"
           style="fill:none;fill-opacity:1;stroke:#000000;stroke-width:1.00003;stroke-linecap:round;stroke-linejoin:miter;stroke-dasharray:none;stroke-opacity:1"
           inkscape:path-effect="#path-effect18452-0"
           inkscape:original-d="m 44.082421,43.656499 c 0.705291,2.65e-4 1.410846,2.65e-4 2.116667,0 -2.65e-4,-1.058089 -2.65e-4,-2.116402 0,-3.175 -0.705835,2.65e-4 -1.411376,2.65e-4 -2.116667,0 m -1.5875,0 c 0.528903,2.65e-4 1.058069,2.65e-4 1.5875,0 m -1.5875,3.174752 c 0.528903,2.65e-4 1.058069,2.65e-4 1.5875,0"
           d="m 44.082421,43.656499 c 0.705291,0 1.410846,0 1.763756,-0.529045 0.352911,-0.529044 0.352911,-1.587357 -7e-6,-2.116656 -0.352917,-0.529299 -1.058458,-0.529299 -1.763749,-0.529299 m -1.5875,0 c 0.528903,0 1.058069,0 1.5875,0 m -1.5875,3.174752 c 0.528903,0 1.058069,0 1.5875,0" /><path
           id="path18450-6-5"
           style="fill:none;fill-opacity:1;stroke:#000000;stroke-width:0.948505;stroke-linecap:round;stroke-linejoin:miter;stroke-dasharray:none;stroke-opacity:1"
           inkscape:path-effect="#path-effect18452-0-15"
           inkscape:original-d="m 26.540128,43.492908 c -0.668951,2.52e-4 -1.338153,2.52e-4 -2.007607,0 2.52e-4,-1.003571 2.52e-4,-2.007355 0,-3.011409 0.669467,2.51e-4 1.338656,2.51e-4 2.007607,0 m 1.505705,0 c -0.501652,2.51e-4 -1.003553,2.51e-4 -1.505705,0 m 1.505705,3.011174 c -0.501652,2.52e-4 -1.003553,2.52e-4 -1.505705,0"
           d="m 26.540128,43.492908 c -0.668951,0 -1.338153,0 -1.67288,-0.501785 -0.334727,-0.501786 -0.334727,-1.50557 6e-6,-2.007597 0.334734,-0.502027 1.003923,-0.502027 1.672874,-0.502027 m 1.505705,0 c -0.501652,0 -1.003553,0 -1.505705,0 m 1.505705,3.011174 c -0.501652,0 -1.003553,0 -1.505705,0" /><path
           style="fill:none;fill-opacity:1;stroke:#000000;stroke-width:1.00003;stroke-linecap:round;stroke-linejoin:miter;stroke-dasharray:none;stroke-opacity:1"
           d="m 35.292131,38.781606 c 1e-6,3.340783 1e-6,6.681302 2e-6,10.021557"
           id="path18785"
           inkscape:path-effect="#path-effect18787"
           inkscape:original-d="m 35.292131,38.781606 c 2.66e-4,3.340783 2.66e-4,6.681302 2e-6,10.021557"
           sodipodi:nodetypes="cc" /><path
           style="opacity:1;fill:#ffffff;fill-opacity:1;stroke:none;stroke-width:1.62784;stroke-linecap:round;stroke-linejoin:miter;stroke-dasharray:none;stroke-opacity:1"
           d="m 199.11645,385.04282 c -0.37462,-0.0505 -1.65174,-0.20262 -2.83804,-0.33816 -9.80945,-1.12076 -20.67864,-4.22361 -38.88106,-11.09946 l -1.30549,-0.49315 v -45.95983 c 0,-25.27791 0.0407,-45.95983 0.0906,-45.95983 0.0498,0 2.59402,0.9121 5.65381,2.0269 22.62189,8.24201 36.40803,10.64468 51.42091,8.9617 9.59984,-1.07616 19.03444,-3.50773 33.49571,-8.63282 2.59892,-0.92106 4.77002,-1.67466 4.82465,-1.67466 0.0546,0 0.0993,20.67834 0.0993,45.95186 0,43.55183 -0.0207,45.96015 -0.39732,46.11061 -1.77584,0.70954 -11.62378,4.17868 -14.81454,5.21872 -8.14113,2.65365 -16.18138,4.59182 -22.70427,5.47308 -2.66533,0.36009 -12.89865,0.65012 -14.64425,0.41504 z m 7.30898,-8.44272 c 1.54146,-1.09762 1.43216,1.87684 1.43216,-38.97643 0,-40.50637 0.10265,-37.568 -1.35518,-38.79468 -1.04893,-0.88262 -2.47175,-1.01381 -3.79556,-0.34998 -0.58813,0.29493 -1.27898,0.82467 -1.53522,1.17722 -0.46473,0.63941 -0.46603,0.73293 -0.52465,37.82282 l -0.0588,37.18183 0.51825,0.76904 c 0.89676,1.33069 1.90217,1.85531 3.36033,1.7534 0.82279,-0.0575 1.50605,-0.26095 1.95863,-0.58322 z"
           id="path26071"
           transform="matrix(0.13947821,0,0,0.13947821,6.8033154,-3.3035801)" /><path
           style="opacity:1;fill:#ffffff;fill-opacity:1;stroke:none;stroke-width:1.62784;stroke-linecap:round;stroke-linejoin:miter;stroke-dasharray:none;stroke-opacity:1"
           d="m 258.9422,325.26011 v -7.74089 l 4.82466,0.005 c 11.20893,0.0125 12.79049,0.51284 13.91297,4.40158 0.2987,1.03481 0.36569,1.94885 0.29276,3.99436 -0.0848,2.37911 -0.16363,2.79072 -0.76458,3.99363 -0.70304,1.40728 -1.56501,2.1534 -3.02724,2.62041 -0.51766,0.16533 -3.48676,0.30006 -8.02996,0.36438 l -7.20861,0.10205 z"
           id="path26073"
           transform="matrix(0.13947821,0,0,0.13947821,6.8033154,-3.3035801)" /><path
           style="opacity:1;fill:#ffffff;fill-opacity:1;stroke:none;stroke-width:1.62784;stroke-linecap:round;stroke-linejoin:miter;stroke-dasharray:none;stroke-opacity:1"
           d="m 136.45266,331.79194 c -2.37177,-0.29931 -3.49575,-0.95146 -4.25689,-2.46994 -1.1074,-2.20926 -1.23252,-6.23422 -0.27305,-8.78389 0.42491,-1.12915 1.57003,-2.20324 2.76416,-2.5927 0.56821,-0.18532 3.06032,-0.30968 7.38509,-0.36854 l 6.52748,-0.0888 v 7.28096 7.28095 l -5.27875,-0.0287 c -2.9033,-0.0158 -5.99392,-0.11897 -6.86804,-0.22929 z"
           id="path26075"
           transform="matrix(0.13947821,0,0,0.13947821,6.8033154,-3.3035801)" /></g><g
         id="1-5"
         transform="matrix(1.9089529,0,0,1.9089529,-13.531904,-28.127999)"
         style="fill:none;fill-opacity:1;stroke:#000000;stroke-width:1.00003;stroke-dasharray:none;stroke-opacity:1"><path
           id="path7997-6-2"
           style="fill:none;fill-opacity:1;stroke:#000000;stroke-width:1.00003;stroke-linecap:round;stroke-linejoin:miter;stroke-dasharray:none;stroke-opacity:1"
           inkscape:path-effect="#path-effect7999-0-6"
           inkscape:original-d="m 28.173637,49.138663 c 2.373096,0.8982 4.74588,1.796117 7.118494,2.693806 2.373146,-0.877665 4.745931,-1.755559 7.118499,-2.633735 M 28.173635,35.202024 c 2.373096,0.8982 4.745881,1.796117 7.118496,2.693806 2.373145,-0.877665 4.745929,-1.755559 7.118497,-2.633735 m 2e-6,10e-7 V 49.198734 M 28.045833,35.100431 v 13.936638"
           d="m 28.173637,49.138663 c 2.37315,0.898056 4.745934,1.795973 7.118728,1.805898 2.372794,0.0099 4.745579,-0.86797 7.118265,-1.745827 M 28.173635,35.202024 c 2.373151,0.898056 4.745935,1.795973 7.118729,1.805898 2.372794,0.0099 4.745578,-0.86797 7.118264,-1.745827 m 2e-6,10e-7 c 0,0 0,13.936638 0,13.936638 M 28.045833,35.100431 c 0,0 0,13.936638 0,13.936638" /><path
           id="path18450-6-54"
           style="fill:none;fill-opacity:1;stroke:#000000;stroke-width:1.00003;stroke-linecap:round;stroke-linejoin:miter;stroke-dasharray:none;stroke-opacity:1"
           inkscape:path-effect="#path-effect18452-0-93"
           inkscape:original-d="m 44.082421,43.656499 c 0.705291,2.65e-4 1.410846,2.65e-4 2.116667,0 -2.65e-4,-1.058089 -2.65e-4,-2.116402 0,-3.175 -0.705835,2.65e-4 -1.411376,2.65e-4 -2.116667,0 m -1.5875,0 c 0.528903,2.65e-4 1.058069,2.65e-4 1.5875,0 m -1.5875,3.174752 c 0.528903,2.65e-4 1.058069,2.65e-4 1.5875,0"
           d="m 44.082421,43.656499 c 0.705291,0 1.410846,0 1.763756,-0.529045 0.352911,-0.529044 0.352911,-1.587357 -7e-6,-2.116656 -0.352917,-0.529299 -1.058458,-0.529299 -1.763749,-0.529299 m -1.5875,0 c 0.528903,0 1.058069,0 1.5875,0 m -1.5875,3.174752 c 0.528903,0 1.058069,0 1.5875,0" /><path
           id="path18450-6-5-7"
           style="fill:none;fill-opacity:1;stroke:#000000;stroke-width:0.948505;stroke-linecap:round;stroke-linejoin:miter;stroke-dasharray:none;stroke-opacity:1"
           inkscape:path-effect="#path-effect18452-0-15-7"
           inkscape:original-d="m 26.540128,43.492908 c -0.668951,2.52e-4 -1.338153,2.52e-4 -2.007607,0 2.52e-4,-1.003571 2.52e-4,-2.007355 0,-3.011409 0.669467,2.51e-4 1.338656,2.51e-4 2.007607,0 m 1.505705,0 c -0.501652,2.51e-4 -1.003553,2.51e-4 -1.505705,0 m 1.505705,3.011174 c -0.501652,2.52e-4 -1.003553,2.52e-4 -1.505705,0"
           d="m 26.540128,43.492908 c -0.668951,0 -1.338153,0 -1.67288,-0.501785 -0.334727,-0.501786 -0.334727,-1.50557 6e-6,-2.007597 0.334734,-0.502027 1.003923,-0.502027 1.672874,-0.502027 m 1.505705,0 c -0.501652,0 -1.003553,0 -1.505705,0 m 1.505705,3.011174 c -0.501652,0 -1.003553,0 -1.505705,0" /><path
           style="fill:none;fill-opacity:1;stroke:#000000;stroke-width:1.00003;stroke-linecap:round;stroke-linejoin:miter;stroke-dasharray:none;stroke-opacity:1"
           d="m 35.292131,38.781606 c 1e-6,3.340783 1e-6,6.681302 2e-6,10.021557"
           id="path18785-4"
           inkscape:path-effect="#path-effect18787-4"
           inkscape:original-d="m 35.292131,38.781606 c 2.66e-4,3.340783 2.66e-4,6.681302 2e-6,10.021557"
           sodipodi:nodetypes="cc" /><path
           style="opacity:1;fill:#ffffff;fill-opacity:1;stroke:none;stroke-width:1.62784;stroke-linecap:round;stroke-linejoin:miter;stroke-dasharray:none;stroke-opacity:1"
           d="m 199.11645,385.04282 c -0.37462,-0.0505 -1.65174,-0.20262 -2.83804,-0.33816 -9.80945,-1.12076 -20.67864,-4.22361 -38.88106,-11.09946 l -1.30549,-0.49315 v -45.95983 c 0,-25.27791 0.0407,-45.95983 0.0906,-45.95983 0.0498,0 2.59402,0.9121 5.65381,2.0269 22.62189,8.24201 36.40803,10.64468 51.42091,8.9617 9.59984,-1.07616 19.03444,-3.50773 33.49571,-8.63282 2.59892,-0.92106 4.77002,-1.67466 4.82465,-1.67466 0.0546,0 0.0993,20.67834 0.0993,45.95186 0,43.55183 -0.0207,45.96015 -0.39732,46.11061 -1.77584,0.70954 -11.62378,4.17868 -14.81454,5.21872 -8.14113,2.65365 -16.18138,4.59182 -22.70427,5.47308 -2.66533,0.36009 -12.89865,0.65012 -14.64425,0.41504 z m 7.30898,-8.44272 c 1.54146,-1.09762 1.43216,1.87684 1.43216,-38.97643 0,-40.50637 0.10265,-37.568 -1.35518,-38.79468 -1.04893,-0.88262 -2.47175,-1.01381 -3.79556,-0.34998 -0.58813,0.29493 -1.27898,0.82467 -1.53522,1.17722 -0.46473,0.63941 -0.46603,0.73293 -0.52465,37.82282 l -0.0588,37.18183 0.51825,0.76904 c 0.89676,1.33069 1.90217,1.85531 3.36033,1.7534 0.82279,-0.0575 1.50605,-0.26095 1.95863,-0.58322 z"
           id="path26071-4"
           transform="matrix(0.13947821,0,0,0.13947821,6.8033154,-3.3035801)" /><path
           style="opacity:1;fill:#ffffff;fill-opacity:1;stroke:none;stroke-width:1.62784;stroke-linecap:round;stroke-linejoin:miter;stroke-dasharray:none;stroke-opacity:1"
           d="m 258.9422,325.26011 v -7.74089 l 4.82466,0.005 c 11.20893,0.0125 12.79049,0.51284 13.91297,4.40158 0.2987,1.03481 0.36569,1.94885 0.29276,3.99436 -0.0848,2.37911 -0.16363,2.79072 -0.76458,3.99363 -0.70304,1.40728 -1.56501,2.1534 -3.02724,2.62041 -0.51766,0.16533 -3.48676,0.30006 -8.02996,0.36438 l -7.20861,0.10205 z"
           id="path26073-3"
           transform="matrix(0.13947821,0,0,0.13947821,6.8033154,-3.3035801)" /><path
           style="opacity:1;fill:#ffffff;fill-opacity:1;stroke:none;stroke-width:1.62784;stroke-linecap:round;stroke-linejoin:miter;stroke-dasharray:none;stroke-opacity:1"
           d="m 136.45266,331.79194 c -2.37177,-0.29931 -3.49575,-0.95146 -4.25689,-2.46994 -1.1074,-2.20926 -1.23252,-6.23422 -0.27305,-8.78389 0.42491,-1.12915 1.57003,-2.20324 2.76416,-2.5927 0.56821,-0.18532 3.06032,-0.30968 7.38509,-0.36854 l 6.52748,-0.0888 v 7.28096 7.28095 l -5.27875,-0.0287 c -2.9033,-0.0158 -5.99392,-0.11897 -6.86804,-0.22929 z"
           id="path26075-0"
           transform="matrix(0.13947821,0,0,0.13947821,6.8033154,-3.3035801)" /></g><g
         id="1-5-8"
         transform="matrix(1.9089529,0,0,1.9089529,-13.531904,-57.688903)"
         style="fill:none;fill-opacity:1;stroke:#000000;stroke-width:1.00003;stroke-dasharray:none;stroke-opacity:1"><path
           id="path7997-6-2-4"
           style="fill:none;fill-opacity:1;stroke:#000000;stroke-width:1.00003;stroke-linecap:round;stroke-linejoin:miter;stroke-dasharray:none;stroke-opacity:1"
           inkscape:path-effect="#path-effect7999-0-6-7"
           inkscape:original-d="m 28.173637,49.138663 c 2.373096,0.8982 4.74588,1.796117 7.118494,2.693806 2.373146,-0.877665 4.745931,-1.755559 7.118499,-2.633735 M 28.173635,35.202024 c 2.373096,0.8982 4.745881,1.796117 7.118496,2.693806 2.373145,-0.877665 4.745929,-1.755559 7.118497,-2.633735 m 2e-6,10e-7 V 49.198734 M 28.045833,35.100431 v 13.936638"
           d="m 28.173637,49.138663 c 2.37315,0.898056 4.745934,1.795973 7.118728,1.805898 2.372794,0.0099 4.745579,-0.86797 7.118265,-1.745827 M 28.173635,35.202024 c 2.373151,0.898056 4.745935,1.795973 7.118729,1.805898 2.372794,0.0099 4.745578,-0.86797 7.118264,-1.745827 m 2e-6,10e-7 c 0,0 0,13.936638 0,13.936638 M 28.045833,35.100431 c 0,0 0,13.936638 0,13.936638" /><path
           id="path18450-6-54-3"
           style="fill:none;fill-opacity:1;stroke:#000000;stroke-width:1.00003;stroke-linecap:round;stroke-linejoin:miter;stroke-dasharray:none;stroke-opacity:1"
           inkscape:path-effect="#path-effect18452-0-93-8"
           inkscape:original-d="m 44.082421,43.656499 c 0.705291,2.65e-4 1.410846,2.65e-4 2.116667,0 -2.65e-4,-1.058089 -2.65e-4,-2.116402 0,-3.175 -0.705835,2.65e-4 -1.411376,2.65e-4 -2.116667,0 m -1.5875,0 c 0.528903,2.65e-4 1.058069,2.65e-4 1.5875,0 m -1.5875,3.174752 c 0.528903,2.65e-4 1.058069,2.65e-4 1.5875,0"
           d="m 44.082421,43.656499 c 0.705291,0 1.410846,0 1.763756,-0.529045 0.352911,-0.529044 0.352911,-1.587357 -7e-6,-2.116656 -0.352917,-0.529299 -1.058458,-0.529299 -1.763749,-0.529299 m -1.5875,0 c 0.528903,0 1.058069,0 1.5875,0 m -1.5875,3.174752 c 0.528903,0 1.058069,0 1.5875,0" /><path
           id="path18450-6-5-7-1"
           style="fill:none;fill-opacity:1;stroke:#000000;stroke-width:0.948505;stroke-linecap:round;stroke-linejoin:miter;stroke-dasharray:none;stroke-opacity:1"
           inkscape:path-effect="#path-effect18452-0-15-7-6"
           inkscape:original-d="m 26.540128,43.492908 c -0.668951,2.52e-4 -1.338153,2.52e-4 -2.007607,0 2.52e-4,-1.003571 2.52e-4,-2.007355 0,-3.011409 0.669467,2.51e-4 1.338656,2.51e-4 2.007607,0 m 1.505705,0 c -0.501652,2.51e-4 -1.003553,2.51e-4 -1.505705,0 m 1.505705,3.011174 c -0.501652,2.52e-4 -1.003553,2.52e-4 -1.505705,0"
           d="m 26.540128,43.492908 c -0.668951,0 -1.338153,0 -1.67288,-0.501785 -0.334727,-0.501786 -0.334727,-1.50557 6e-6,-2.007597 0.334734,-0.502027 1.003923,-0.502027 1.672874,-0.502027 m 1.505705,0 c -0.501652,0 -1.003553,0 -1.505705,0 m 1.505705,3.011174 c -0.501652,0 -1.003553,0 -1.505705,0" /><path
           style="fill:none;fill-opacity:1;stroke:#000000;stroke-width:1.00003;stroke-linecap:round;stroke-linejoin:miter;stroke-dasharray:none;stroke-opacity:1"
           d="m 35.292131,38.781606 c 1e-6,3.340783 1e-6,6.681302 2e-6,10.021557"
           id="path18785-4-4"
           inkscape:path-effect="#path-effect18787-4-8"
           inkscape:original-d="m 35.292131,38.781606 c 2.66e-4,3.340783 2.66e-4,6.681302 2e-6,10.021557"
           sodipodi:nodetypes="cc" /><path
           style="opacity:1;fill:#ffffff;fill-opacity:1;stroke:none;stroke-width:1.62784;stroke-linecap:round;stroke-linejoin:miter;stroke-dasharray:none;stroke-opacity:1"
           d="m 199.11645,385.04282 c -0.37462,-0.0505 -1.65174,-0.20262 -2.83804,-0.33816 -9.80945,-1.12076 -20.67864,-4.22361 -38.88106,-11.09946 l -1.30549,-0.49315 v -45.95983 c 0,-25.27791 0.0407,-45.95983 0.0906,-45.95983 0.0498,0 2.59402,0.9121 5.65381,2.0269 22.62189,8.24201 36.40803,10.64468 51.42091,8.9617 9.59984,-1.07616 19.03444,-3.50773 33.49571,-8.63282 2.59892,-0.92106 4.77002,-1.67466 4.82465,-1.67466 0.0546,0 0.0993,20.67834 0.0993,45.95186 0,43.55183 -0.0207,45.96015 -0.39732,46.11061 -1.77584,0.70954 -11.62378,4.17868 -14.81454,5.21872 -8.14113,2.65365 -16.18138,4.59182 -22.70427,5.47308 -2.66533,0.36009 -12.89865,0.65012 -14.64425,0.41504 z m 7.30898,-8.44272 c 1.54146,-1.09762 1.43216,1.87684 1.43216,-38.97643 0,-40.50637 0.10265,-37.568 -1.35518,-38.79468 -1.04893,-0.88262 -2.47175,-1.01381 -3.79556,-0.34998 -0.58813,0.29493 -1.27898,0.82467 -1.53522,1.17722 -0.46473,0.63941 -0.46603,0.73293 -0.52465,37.82282 l -0.0588,37.18183 0.51825,0.76904 c 0.89676,1.33069 1.90217,1.85531 3.36033,1.7534 0.82279,-0.0575 1.50605,-0.26095 1.95863,-0.58322 z"
           id="path26071-4-9"
           transform="matrix(0.13947821,0,0,0.13947821,6.8033154,-3.3035801)" /><path
           style="opacity:1;fill:#ffffff;fill-opacity:1;stroke:none;stroke-width:1.62784;stroke-linecap:round;stroke-linejoin:miter;stroke-dasharray:none;stroke-opacity:1"
           d="m 258.9422,325.26011 v -7.74089 l 4.82466,0.005 c 11.20893,0.0125 12.79049,0.51284 13.91297,4.40158 0.2987,1.03481 0.36569,1.94885 0.29276,3.99436 -0.0848,2.37911 -0.16363,2.79072 -0.76458,3.99363 -0.70304,1.40728 -1.56501,2.1534 -3.02724,2.62041 -0.51766,0.16533 -3.48676,0.30006 -8.02996,0.36438 l -7.20861,0.10205 z"
           id="path26073-3-2"
           transform="matrix(0.13947821,0,0,0.13947821,6.8033154,-3.3035801)" /><path
           style="opacity:1;fill:#ffffff;fill-opacity:1;stroke:none;stroke-width:1.62784;stroke-linecap:round;stroke-linejoin:miter;stroke-dasharray:none;stroke-opacity:1"
           d="m 136.45266,331.79194 c -2.37177,-0.29931 -3.49575,-0.95146 -4.25689,-2.46994 -1.1074,-2.20926 -1.23252,-6.23422 -0.27305,-8.78389 0.42491,-1.12915 1.57003,-2.20324 2.76416,-2.5927 0.56821,-0.18532 3.06032,-0.30968 7.38509,-0.36854 l 6.52748,-0.0888 v 7.28096 7.28095 l -5.27875,-0.0287 c -2.9033,-0.0158 -5.99392,-0.11897 -6.86804,-0.22929 z"
           id="path26075-0-0"
           transform="matrix(0.13947821,0,0,0.13947821,6.8033154,-3.3035801)" /></g></g></g></svg>
