<?xml version="1.0" encoding="UTF-8" standalone="no"?>
<!-- Generator: Adobe Illustrator 17.1.0, SVG Export Plug-In . SVG Version: 6.00 Build 0)  -->

<svg
   version="1.1"
   id="Capa_1"
   x="0px"
   y="0px"
   viewBox="0 0 89.513 89.513"
   style="enable-background:new 0 0 89.513 89.513;"
   xml:space="preserve"
   sodipodi:docname="antygarb_icon.svg"
   inkscape:version="1.2.1 (9c6d41e410, 2022-07-14, custom)"
   xmlns:inkscape="http://www.inkscape.org/namespaces/inkscape"
   xmlns:sodipodi="http://sodipodi.sourceforge.net/DTD/sodipodi-0.dtd"
   xmlns="http://www.w3.org/2000/svg"
   xmlns:svg="http://www.w3.org/2000/svg"><defs
   id="defs118"><filter
     style="color-interpolation-filters:sRGB;"
     inkscape:label="Drop Shadow"
     id="filter7591"
     x="-2.7911102"
     y="-1.353118"
     width="6.650877"
     height="3.7718649"><feFlood
       flood-opacity="0.498039"
       flood-color="rgb(0,0,0)"
       result="flood"
       id="feFlood7581" /><feComposite
       in="flood"
       in2="SourceGraphic"
       operator="in"
       result="composite1"
       id="feComposite7583" /><feGaussianBlur
       in="composite1"
       stdDeviation="45"
       result="blur"
       id="feGaussianBlur7585" /><feOffset
       dx="2.71565"
       dy="3.35463"
       result="offset"
       id="feOffset7587" /><feComposite
       in="SourceGraphic"
       in2="offset"
       operator="over"
       result="fbSourceGraphic"
       id="feComposite7589" /><feColorMatrix
       result="fbSourceGraphicAlpha"
       in="fbSourceGraphic"
       values="0 0 0 -1 0 0 0 0 -1 0 0 0 0 -1 0 0 0 0 1 0"
       id="feColorMatrix8983" /><feFlood
       id="feFlood8985"
       flood-opacity="0.211765"
       flood-color="rgb(0,0,0)"
       result="flood"
       in="fbSourceGraphic" /><feComposite
       in2="fbSourceGraphic"
       id="feComposite8987"
       in="flood"
       operator="in"
       result="composite1" /><feGaussianBlur
       id="feGaussianBlur8989"
       in="composite1"
       stdDeviation="1"
       result="blur" /><feOffset
       id="feOffset8991"
       dx="0"
       dy="2"
       result="offset" /><feComposite
       in2="offset"
       id="feComposite8993"
       in="fbSourceGraphic"
       operator="over"
       result="composite2" /></filter></defs><sodipodi:namedview
   id="namedview116"
   pagecolor="#505050"
   bordercolor="#ffffff"
   borderopacity="1"
   inkscape:showpageshadow="0"
   inkscape:pageopacity="0"
   inkscape:pagecheckerboard="1"
   inkscape:deskcolor="#505050"
   showgrid="false"
   inkscape:zoom="6.5634517"
   inkscape:cx="29.100542"
   inkscape:cy="42.508121"
   inkscape:window-width="1920"
   inkscape:window-height="1012"
   inkscape:window-x="0"
   inkscape:window-y="0"
   inkscape:window-maximized="1"
   inkscape:current-layer="Capa_1" />
<g
   inkscape:groupmode="layer"
   id="layer2"
   inkscape:label="background"
   style="enable-background:new 0 0 89.513 89.513;fill:#fefefe;fill-opacity:1;stroke:none"><path
     id="rect740"
     style="fill:#3771c8"
     d="M 6.5761719 0.00390625 C 2.9341871 0.00390625 0.001953125 2.9341871 0.001953125 6.5761719 L 0.001953125 82.935547 C 0.001953125 86.577531 2.9341871 89.509766 6.5761719 89.509766 L 82.935547 89.509766 C 86.577531 89.509766 89.509766 86.577531 89.509766 82.935547 L 89.509766 6.5761719 C 89.509766 2.9341871 86.577531 0.00390625 82.935547 0.00390625 L 6.5761719 0.00390625 z " /></g><g
   id="g4223"
   transform="matrix(1.0130717,0,0,1.0130717,-0.69540872,-4.3691105)"
   inkscape:label="foreground"
   style="enable-background:new 0 0 89.513 89.513;fill:#fefefe;fill-opacity:1;stroke:none;filter:url(#filter7591)">
	<path
   d="m 63.669,41.786 c -0.564,-0.571 -1.315,-0.887 -2.116,-0.889 l -10,-0.031 C 50.896,40.864 50.129,40.289 49.942,39.658 L 45.931,26.098 C 45.924,26.075 45.912,26.06 45.905,26.037 45.662,24.625 44.436,23.546 42.956,23.546 h -6.385 c -1.654,0 -3,1.346 -3,3 v 30.86 c 0,1.654 1.346,3 3,3 h 1.291 c 0.042,10e-4 0.079,0.013 0.122,0.013 l 12.421,-0.011 c 0.881,0 1.598,0.717 1.598,1.598 v 18.209 c 0,1.985 1.615,3.6 3.6,3.6 h 2.41 c 0.96,0 1.862,-0.376 2.54,-1.06 0.677,-0.684 1.045,-1.589 1.036,-2.549 L 61.345,54.311 C 61.326,52.332 59.7,50.721 57.72,50.721 H 45.956 v -3.019 c 0.545,0.321 1.16,0.516 1.781,0.516 h 13.77 c 1.649,0 3.002,-1.342 3.016,-2.992 l 0.01,-1.315 c 0.008,-0.799 -0.299,-1.554 -0.864,-2.125 z"
   id="path4217"
   inkscape:label="body"
   style="fill:#fefefe;fill-opacity:1;stroke:none" />
	<path
   d="m 39.764,22.166306 c 4.01085,0 7.274182,-3.194981 7.274182,-7.121823 0,-3.926842 -3.263332,-7.1218224 -7.274182,-7.1218224 -4.01085,0 -7.274182,3.1949804 -7.274182,7.1218224 0,3.926842 3.262616,7.121823 7.274182,7.121823 z"
   id="path4219"
   inkscape:label="head"
   style="stroke-width:0.707798;fill:#fefefe;fill-opacity:1;stroke:none" />
	<path
   d="M 46.16,62.482 H 28.979 V 56.418 22.502 c 0,-1.104 -0.896,-2 -2,-2 -1.104,0 -2,0.896 -2,2 v 33.916 6.064 25.03 c 0,1.104 0.896,2 2,2 1.104,0 2,-0.896 2,-2 V 66.482 H 46.16 v 21.03 c 0,1.104 0.896,2 2,2 1.104,0 2,-0.896 2,-2 v -21.03 c 0,-2.205 -1.794,-4 -4,-4 z"
   id="path4221"
   inkscape:label="chair"
   style="fill:#fefefe;fill-opacity:1;stroke:none" />
</g>















</svg>
